<svg width="50" height="43" viewBox="0 0 50 43" fill="none" xmlns="http://www.w3.org/2000/svg">
<path d="M46.999 5.30586H29.8038C29.7802 5.30586 29.7592 5.29327 29.7493 5.27306L27.9758 1.6758C27.4754 0.657654 26.4187 0 25.2834 0H14.8884C13.2336 0 11.8874 1.34659 11.8874 3.00179V5.94406H8.94394C7.28951 5.94406 5.9433 7.29027 5.9433 8.94508V11.8874H3.00102C1.34621 11.8874 0 13.2336 0 14.8884V39.1727C0 40.8276 1.34621 42.1738 3.00102 42.1738H35.112C36.7668 42.1738 38.113 40.8276 38.113 39.1727V36.2301H41.0557C42.7105 36.2301 44.0567 34.8839 44.0567 33.2294V30.2872H46.999C48.6538 30.2872 50 28.941 50 27.2861V8.30765C50 6.65245 48.6538 5.30586 46.999 5.30586ZM35.112 39.2326H3.00102C2.96822 39.2326 2.94113 39.2059 2.94113 39.1727V14.8884C2.94113 14.8552 2.96822 14.8285 3.00102 14.8285H13.3968C13.4068 14.8285 13.4163 14.8319 13.4247 14.8365C13.4258 14.8373 13.4274 14.8369 13.4285 14.8376C13.4319 14.8399 13.4338 14.8441 13.4369 14.8468C13.4418 14.8518 13.4476 14.856 13.4506 14.8621L15.2248 18.4605C15.7341 19.4927 16.7656 20.1344 17.9165 20.1344H35.112C35.12 20.1344 35.128 20.1359 35.1353 20.1389C35.1566 20.1481 35.1715 20.1694 35.1715 20.1942C35.1715 30.5656 35.1719 39.0781 35.1719 39.1727C35.1719 39.2059 35.1452 39.2326 35.112 39.2326ZM41.1156 33.2294C41.1156 33.2623 41.0889 33.289 41.0561 33.289H38.113V20.1942C38.113 18.539 36.7664 17.1928 35.1116 17.1928H17.9165C17.8944 17.1928 17.873 17.1795 17.8631 17.1593L16.0885 13.5609C15.5796 12.5298 14.5485 11.8874 13.3972 11.8874H8.88443V8.94508C8.88443 8.9119 8.91113 8.88519 8.94394 8.88519H19.3401C19.363 8.88519 19.3836 8.89778 19.3939 8.91914L21.1685 12.5175C21.6782 13.5498 22.7093 14.1911 23.8598 14.1911H41.0561C41.0889 14.1911 41.1156 14.2178 41.1156 14.2509V33.2294ZM47.0589 27.2861C47.0589 27.3193 47.0322 27.346 46.999 27.346H44.0567V14.2509C44.0567 12.5961 42.7109 11.2499 41.0561 11.2499H23.8598C23.8373 11.2499 23.8163 11.2366 23.806 11.216L22.0318 7.61871C21.5233 6.58569 20.4918 5.94406 19.3401 5.94406H14.8285V3.00179C14.8285 2.96822 14.8552 2.94113 14.888 2.94113H25.2831C25.3056 2.94113 25.3265 2.95372 25.3368 2.9747L27.1114 6.57425C27.6207 7.60574 28.6522 8.24699 29.8038 8.24699H46.999C47.0318 8.24699 47.0585 8.27408 47.0585 8.30803V27.2861H47.0589Z" fill="#0D294D"/>
<path d="M26.1329 32.8384C25.3208 32.8384 24.6624 33.4969 24.6624 34.309V35.1593C24.6624 35.9715 25.3208 36.6299 26.1329 36.6299C26.9451 36.6299 27.6035 35.9715 27.6035 35.1593V34.309C27.6035 33.4969 26.9451 32.8384 26.1329 32.8384Z" fill="#0D294D"/>
<path d="M30.4184 32.8384C29.6063 32.8384 28.9479 33.4969 28.9479 34.309V35.1593C28.9479 35.9715 29.6063 36.6299 30.4184 36.6299C31.2306 36.6299 31.889 35.9715 31.889 35.1593V34.309C31.889 33.4969 31.2306 32.8384 30.4184 32.8384Z" fill="#0D294D"/>
</svg>
