<svg width="50" height="50" viewBox="0 0 50 50" fill="none" xmlns="http://www.w3.org/2000/svg">
<g clip-path="url(#clip0_245_36172)">
<path d="M11.8676 13.5342H26.2388C27.1857 13.5342 27.1857 12.0693 26.2388 12.0693H11.8676C10.9206 12.0693 10.9206 13.5342 11.8676 13.5342Z" fill="#0D294D"/>
<path d="M11.8676 18.9077H22.9185C23.8654 18.9077 23.8654 17.4429 22.9185 17.4429H11.8676C10.9206 17.4429 10.9206 18.9077 11.8676 18.9077Z" fill="#0D294D"/>
<path d="M11.8676 24.2812H21.356C22.3029 24.2812 22.3029 22.8164 21.356 22.8164H11.8676C10.9206 22.8164 10.9206 24.2812 11.8676 24.2812Z" fill="#0D294D"/>
<path d="M25.3621 42.2249H24.8769V35.0668C24.8769 34.6623 24.549 34.3344 24.1445 34.3344H21.2052V31.7526C21.2052 31.3481 20.8774 31.0201 20.4728 31.0201H16.81C16.4054 31.0201 16.0776 31.3481 16.0776 31.7526V36.2093H13.1441C12.7395 36.2093 12.4116 36.5372 12.4116 36.9417V42.2249H11.9264C11.5218 42.2249 11.194 42.5529 11.194 42.9573C11.194 43.3618 11.5218 43.6898 11.9264 43.6898H25.362C25.7666 43.6898 26.0945 43.3618 26.0945 42.9573C26.0945 42.5529 25.7666 42.2249 25.3621 42.2249ZM13.8766 42.2249V37.6741H16.0746V42.2249H13.8766ZM17.5425 42.2249V32.485H19.7405V42.2249H17.5425ZM21.214 42.2249V35.7992H23.412V42.2249H21.214Z" fill="#0D294D"/>
<path d="M49.994 22.8128C49.8986 19.7296 48.6428 16.8282 46.4578 14.6432C45.4093 13.5947 44.2144 12.7802 42.9385 12.1983C42.9171 12.186 42.895 12.1746 42.872 12.1643C42.8486 12.1537 42.8249 12.1445 42.801 12.1367C41.1509 11.4091 39.3704 11.0677 37.5978 11.1134V7.07803C37.5978 6.13994 36.8348 5.37676 35.8968 5.37676H34.8405V4.4623C34.8405 3.52422 34.0775 2.76104 33.1395 2.76104H32.0802V1.70127C32.0803 0.763184 31.3172 0 30.3793 0H1.70122C0.763232 0 0.000244141 0.763184 0.000244141 1.70127V42.9221C0.000244141 43.8602 0.763232 44.6233 1.70122 44.6233H2.7605V45.6831C2.7605 46.6212 3.52349 47.3844 4.45845 47.3844L5.51792 47.3887V48.2988C5.51792 49.2369 6.28091 50.0001 7.2189 50.0001H30.0977C30.2892 50.0001 30.4787 49.922 30.6144 49.7868L37.3823 43.051C37.5204 42.9135 37.598 42.7267 37.598 42.5318V35.2707C37.6967 35.2731 37.7955 35.2755 37.8942 35.2755C39.9586 35.2755 42.0143 34.7479 43.8123 33.7404C44.6385 33.2775 43.9224 31.9999 43.0962 32.4625C39.1858 34.6538 34.2917 34.1139 30.9396 31.1974L38.1321 24.0049L47.9651 26.6105C47.5317 27.8919 46.8467 29.1078 45.9064 30.1805C45.2822 30.8926 46.3835 31.8582 47.0079 31.1462C49.0284 28.8414 50.0888 25.8819 49.994 22.8128ZM41.5908 13.2271L37.2991 22.7659L29.9024 30.1627C26.2691 25.9954 26.4352 19.6458 30.4021 15.6789C33.422 12.659 37.823 11.8421 41.5908 13.2271ZM4.46128 45.9194C4.3311 45.9194 4.22524 45.8134 4.22524 45.683V4.4623C4.22524 4.33193 4.3311 4.22588 4.46128 4.22588H9.57046C10.5174 4.22588 10.5174 2.76104 9.57046 2.76104H4.46128C3.52339 2.76104 2.7604 3.52422 2.7604 4.4623V43.1584H1.70122C1.57104 43.1584 1.46509 43.0523 1.46509 42.922V1.70127C1.46509 1.5709 1.57104 1.46484 1.70122 1.46484H30.3793C30.5095 1.46484 30.6155 1.5709 30.6155 1.70127V2.76113H13.6721C12.7251 2.76113 12.7251 4.22598 13.6721 4.22598H33.1396C33.2698 4.22598 33.3757 4.33203 33.3757 4.4624V5.37686H7.2188C6.28091 5.37686 5.51782 6.14004 5.51782 7.07813V45.9238L4.46128 45.9194ZM6.98267 48.2987V7.07803C6.98267 6.94766 7.08862 6.8416 7.2188 6.8416H35.8969C36.0271 6.8416 36.1331 6.94766 36.1331 7.07803V11.24C33.655 11.6059 31.2696 12.7399 29.3663 14.6433C24.6541 19.3554 24.6541 27.0226 29.3663 31.7348C31.2197 33.5881 33.5561 34.7625 36.1331 35.1436V41.7365H31.0662C30.1283 41.7365 29.3652 42.4997 29.3652 43.4378V48.5352H7.2188C7.08862 48.5352 6.98267 48.4291 6.98267 48.2987ZM30.83 47.4937V43.4378C30.83 43.3074 30.936 43.2014 31.0662 43.2014H35.1029L30.83 47.4937ZM38.9341 22.702L42.9273 13.8267C43.8242 14.3064 44.6664 14.9235 45.4218 15.679C47.9889 18.2462 48.9745 21.8415 48.3371 25.1938L38.9341 22.702Z" fill="#0D294D"/>
</g>
<defs>
<clipPath id="clip0_245_36172">
<rect width="50" height="50" fill="white"/>
</clipPath>
</defs>
</svg>
