<svg width="52" height="56" viewBox="0 0 52 56" fill="none" xmlns="http://www.w3.org/2000/svg">
<path d="M20.9893 51.1051C23.222 53.3377 26.0389 54.3061 28.8458 54.8064C30.2446 55.0558 31.474 53.8264 31.2247 52.4275C30.7244 49.6206 29.7561 46.8036 27.5233 44.5711M20.9893 51.1051L4.86803 34.9837M20.9893 51.1051L27.5233 44.5711M27.5233 44.5711L11.4021 28.4496C10.5075 27.5551 9.05706 27.5551 8.16249 28.4496L4.86803 31.7441C3.97346 32.6388 3.97346 34.0892 4.86803 34.9837M4.86803 34.9837L4.2782 35.5736C3.17196 36.6799 3.17196 38.4733 4.2782 39.5796L9.82241 45.1238C10.5383 45.8397 11.6992 45.8397 12.4152 45.1238C13.1312 44.4078 13.1312 43.2469 12.4152 42.5309M8.36246 28.2733L5.0797 24.9906C4.53459 24.4455 3.65064 24.4455 3.10554 24.9906L1.40891 26.6872C0.863697 27.2324 0.863697 28.1163 1.40891 28.6615L4.69167 31.9441M11.65 45.582V47.034C11.65 49.4607 13.6173 51.4279 16.0439 51.4279H21.327M14.836 1.16805C12.9967 1.6929 11.65 3.38606 11.65 5.3938V28.6977M47.585 48.1795C49.6924 46.1151 51 43.2374 51 40.0543V5.39388C51 2.96723 49.0328 1 46.6061 1H18.6346M31.025 51.4279H39.6264C41.3311 51.4279 42.9482 51.0529 44.3998 50.3807M51 37.1984C51 41.3451 46.9511 41.5405 45.5065 41.5405C43.0798 41.5405 41.1126 43.5077 41.1126 45.9344C41.1126 47.3789 40.9172 51.4279 36.7706 51.4279M20.5235 22.6863H42.1266M20.5235 27.4535H42.1266M20.5235 32.2207H31.3251M21.7116 11.5813H19.5159M40.9385 11.5813H43.1342M30.8853 16.8748C31.17 16.9755 31.4801 16.9755 31.7648 16.8748C33.181 16.3737 35.8445 14.8822 35.8445 12.4986V7.91628C35.8445 7.60072 35.6785 7.30661 35.4049 7.14921C34.4176 6.58114 32.8172 6.21229 31.3251 6.21229C29.8329 6.21229 28.2325 6.58114 27.2452 7.14921C26.9716 7.30661 26.8056 7.60072 26.8056 7.91628V12.4986C26.8056 14.8822 29.4691 16.3737 30.8853 16.8748Z" stroke="#0D294D" stroke-width="2" stroke-miterlimit="10" stroke-linecap="round" stroke-linejoin="round"/>
</svg>
