<svg width="52" height="52" viewBox="0 0 52 52" fill="none" xmlns="http://www.w3.org/2000/svg">
<path d="M40.3155 30.5587C38.3855 36.6254 32.7048 41.0213 25.9986 41.0213C17.7021 41.0213 10.9787 34.295 10.9787 25.9985C10.9787 17.7022 17.7021 10.9787 25.9986 10.9787C32.7019 10.9787 38.3797 15.3689 40.3127 21.4298M41.0213 25.9985V25.9957M23.6825 25.8459L25.4311 27.485L29.0579 23.766M30.4809 6.02683C32.7854 6.54238 34.9431 7.44705 36.8817 8.66555L38.6015 6.94573C39.627 5.92022 41.3007 5.92022 42.3262 6.94573L45.0428 9.66219C46.0682 10.6877 46.0682 12.3614 45.0428 13.387L43.323 15.1067C44.53 17.0282 45.4288 19.1627 45.9473 21.4442H48.3671C49.8131 21.4442 51 22.6281 51 24.0771V27.92C51 29.369 49.8131 30.5529 48.3671 30.5529H45.9386C45.42 32.8201 44.5242 34.9431 43.323 36.8558L45.0428 38.5756C46.0682 39.6011 46.0682 41.2748 45.0428 42.3004L42.3262 45.0169C41.3007 46.0424 39.627 46.0424 38.6015 45.0169L36.8817 43.2971C34.9632 44.5041 32.8315 45.4 30.5528 45.9185V48.3671C30.5528 49.8131 29.3689 51 27.9199 51H24.0771C22.6282 51 21.4442 49.8131 21.4442 48.3671V45.9157C19.1742 45.3971 17.0453 44.5012 15.1326 43.2971L13.4128 45.0169C12.3873 46.0424 10.7136 46.0424 9.68811 45.0169L6.97165 42.3004C5.94614 41.2748 5.94614 39.6011 6.97165 38.5756L8.69136 36.8558C7.49014 34.9431 6.59431 32.8201 6.07571 30.5529H3.63293C2.18395 30.5529 1 29.369 1 27.92V24.0771C1 22.6281 2.18395 21.4442 3.63293 21.4442H6.06708C6.57988 19.1887 7.46138 17.0742 8.65102 15.1701L6.91982 13.4388C5.89421 12.4133 5.89421 10.7396 6.91982 9.71402L9.63628 6.99766C10.6618 5.97205 12.3355 5.97205 13.361 6.99766L15.0692 8.70579C16.9792 7.49593 19.1021 6.59146 21.3722 6.06423V3.63293C21.3722 2.18404 22.5561 1 24.0022 1H27.848C29.297 1 30.4809 2.18404 30.4809 3.63293V6.02683ZM25.022 35.45C22.8701 34.1653 21.1186 31.9932 19.7705 29.4784C18.4108 26.9434 17.6733 24.2645 17.6965 21.741C17.705 20.6232 17.9557 20.4993 18.8833 19.9981L25.9985 16.161L33.1138 19.9981C34.0414 20.4993 34.292 20.6232 34.3036 21.741C34.3266 24.2645 33.5891 26.9434 32.2294 29.4784C30.8784 31.9932 29.1298 34.1653 26.9751 35.45C26.1137 35.9657 25.8834 35.9657 25.022 35.45Z" stroke="#0D294D" stroke-width="2" stroke-miterlimit="10" stroke-linecap="round" stroke-linejoin="round"/>
</svg>
