<svg width="50" height="44" viewBox="0 0 50 44" fill="none" xmlns="http://www.w3.org/2000/svg">
<path d="M48.4375 28.1242C47.575 28.1242 46.875 28.8242 46.875 29.6867V40.6242H3.125V21.8742H20.3125C21.175 21.8742 21.875 21.1742 21.875 20.3117C21.875 19.4492 21.175 18.7492 20.3125 18.7492H3.125V12.4992H20.3125C21.175 12.4992 21.875 11.7992 21.875 10.9367C21.875 10.0742 21.175 9.37421 20.3125 9.37421H3.125C1.4 9.37421 0 10.7742 0 12.4992V40.6242C0 42.3492 1.4 43.7492 3.125 43.7492H46.875C48.6 43.7492 50 42.3492 50 40.6242V29.6867C50 28.8242 49.3 28.1242 48.4375 28.1242Z" fill="#0D294D"/>
<path d="M14.0625 28.1242H7.8125C6.95 28.1242 6.25 28.8242 6.25 29.6867C6.25 30.5492 6.95 31.2492 7.8125 31.2492H14.0625C14.925 31.2492 15.625 30.5492 15.625 29.6867C15.625 28.8242 14.925 28.1242 14.0625 28.1242Z" fill="#0D294D"/>
<path d="M49.0531 4.81172L38.1156 0.124219C37.7187 -0.0414062 37.2781 -0.0414062 36.8812 0.124219L25.9438 4.81172C25.3719 5.05859 25 5.62422 25 6.24922V12.4992C25 21.0961 28.1781 26.1211 36.7219 31.043C36.9625 31.1805 37.2312 31.2492 37.5 31.2492C37.7688 31.2492 38.0375 31.1805 38.2781 31.043C46.8219 26.1336 50 21.1086 50 12.4992V6.24922C50 5.62422 49.6281 5.05859 49.0531 4.81172ZM46.875 12.4992C46.875 19.7148 44.4875 23.6867 37.5 27.8742C30.5125 23.6773 28.125 19.7055 28.125 12.4992V7.28047L37.5 3.26172L46.875 7.28047V12.4992Z" fill="#0D294D"/>
<path d="M43.1656 9.71484C42.4938 9.18359 41.5125 9.28672 40.9688 9.95859L36.0563 16.1023L34.1125 13.1961C33.6281 12.4773 32.6563 12.2867 31.9469 12.7617C31.2313 13.2398 31.0344 14.2117 31.5125 14.9273L34.6375 19.6148C34.9156 20.0305 35.3719 20.2867 35.8719 20.3117C35.8938 20.3117 35.9188 20.3117 35.9375 20.3117C36.4094 20.3117 36.8594 20.0992 37.1594 19.7242L43.4094 11.9117C43.9469 11.2367 43.8406 10.2555 43.1656 9.71484Z" fill="#0D294D"/>
</svg>
