<svg width="52" height="52" viewBox="0 0 52 52" fill="none" xmlns="http://www.w3.org/2000/svg">
<path d="M27.881 40.9348H38.9713L38.1015 33.9641C38.0674 33.696 38.3622 33.5057 38.6003 33.6424L44.0717 36.7896V8.06888H1.00007V38.1903C1.00007 39.7063 2.25119 40.9348 3.79509 40.9348H18.8146M22.4549 14.3165H36.0052M22.4549 20.7362H36.0052M9.08524 27.1559H36.0052M9.08524 33.5756H31.4463M44.0718 3.74472C44.0718 2.22876 42.8204 1 41.2767 1H3.79523C2.25153 1 1 2.22876 1 3.74472V8.0685H44.0718V3.74472ZM38.1013 33.9643L39.7027 46.7936C39.7386 47.0809 40.109 47.1843 40.2933 46.9582L42.137 44.6975C42.2785 44.5241 42.5511 44.5366 42.6754 44.7223L46.7782 50.8525C46.8792 51.0035 47.0858 51.0454 47.2395 50.9462L50.8498 48.6163C51.0035 48.517 51.0463 48.3142 50.9453 48.1632L46.8423 42.033C46.7181 41.8474 46.8145 41.5966 47.0327 41.5379L49.8775 40.7729C50.1618 40.6964 50.2122 40.3215 49.9578 40.1752L38.6003 33.6423C38.3623 33.5054 38.0678 33.6955 38.1013 33.9643ZM16.03 21.1093H9.08523V14.3164H16.03V21.1093Z" stroke="#0D294D" stroke-width="2" stroke-miterlimit="10" stroke-linecap="round" stroke-linejoin="round"/>
</svg>
