<svg
			width="6"
			height="11"
			viewBox="0 0 6 11"
			fill="none"
			xmlns="http://www.w3.org/2000/svg">
			<path
				d="M3.4368 -3.32694e-05C3.32491 -3.32742e-05 3.21862 0.0447217 3.1403 0.123043L1.05918 2.20416C0.896941 2.3664 0.896941 2.63493 1.05918 2.79717C1.22142 2.95941 1.48995 2.95941 1.65219 2.79717L3.02281 1.42654L3.02281 10.4895C3.02281 10.7188 3.21302 10.9091 3.44239 10.9091C3.67177 10.9091 3.85638 10.7188 3.85638 10.4895L3.85638 1.43213L5.22142 2.79717C5.38365 2.95941 5.65219 2.95941 5.81442 2.79717C5.89834 2.71325 5.9375 2.60696 5.9375 2.50067C5.9375 2.39437 5.89834 2.28808 5.81442 2.20416L3.7389 0.128638C3.69974 0.0894777 3.64939 0.0559102 3.59344 0.0335332C3.58785 0.0335332 3.58226 0.0335332 3.57666 0.027939C3.53191 0.0111552 3.48715 -3.32672e-05 3.4368 -3.32694e-05Z"
				fill="#71C287"
			/>
		</svg>
