<svg
			width="6"
			height="11"
			viewBox="0 0 6 11"
			fill="none"
			xmlns="http://www.w3.org/2000/svg">
			<path
				d="M3.4382 10.9091C3.55009 10.9091 3.65638 10.8643 3.7347 10.786L5.81582 8.7049C5.97806 8.54266 5.97806 8.27413 5.81582 8.11189C5.65358 7.94965 5.38505 7.94965 5.22281 8.11189L3.85219 9.48252L3.85219 0.41958C3.85219 0.19021 3.66198 -9.94663e-08 3.43261 -1.09492e-07C3.20323 -1.19519e-07 3.01862 0.19021 3.01862 0.41958L3.01862 9.47692L1.65358 8.11189C1.49135 7.94965 1.22281 7.94965 1.06058 8.11189C0.976661 8.1958 0.9375 8.3021 0.9375 8.40839C0.9375 8.51469 0.976661 8.62098 1.06058 8.70489L3.1361 10.7804C3.17526 10.8196 3.22561 10.8531 3.28156 10.8755C3.28715 10.8755 3.29274 10.8755 3.29834 10.8811C3.34309 10.8979 3.38785 10.9091 3.4382 10.9091Z"
				fill="#FA7066"
			/>
		</svg>
