		<svg
			width="20"
			height="20"
			viewBox="0 0 20 20"
			fill="none"
			xmlns="http://www.w3.org/2000/svg">
			<path
				d="M17.1167 15.8667C16.9917 15.9917 16.8334 16.05 16.6751 16.05C16.5167 16.05 16.3584 15.9917 16.2334 15.8667L12.1084 11.7417L12.5501 11.3L12.9917 10.8583L17.1167 14.9833C17.3584 15.225 17.3584 15.625 17.1167 15.8667Z"
				
			/>
			<path
				d="M5.39172 7.73333L10.225 12.5667C10.55 12.8917 10.55 13.4167 10.225 13.7417L9.47505 14.5C8.80005 15.1667 7.73338 15.1667 7.06672 14.5L3.45005 10.8833C2.79172 10.225 2.79172 9.14999 3.45005 8.48333L4.20838 7.72499C4.53338 7.40833 5.06672 7.40833 5.39172 7.73333Z"
				
			/>
			<path
				d="M15.4917 8.49167L12.3167 11.6583C11.9834 11.9917 11.45 11.9917 11.1167 11.6583L6.30005 6.84167C5.96672 6.50833 5.96672 5.975 6.30005 5.64167L9.47505 2.46667C10.1334 1.80833 11.2084 1.80833 11.875 2.46667L15.4917 6.08333C16.15 6.75 16.15 7.81667 15.4917 8.49167Z"
				
			/>
			<path
				d="M6.66675 18.125H1.66675C1.32508 18.125 1.04175 17.8417 1.04175 17.5C1.04175 17.1583 1.32508 16.875 1.66675 16.875H6.66675C7.00841 16.875 7.29175 17.1583 7.29175 17.5C7.29175 17.8417 7.00841 18.125 6.66675 18.125Z"
				
			/>
		</svg>
