<svg
			width="16"
			height="16"
			viewBox="0 0 16 16"
			fill="none"
			xmlns="http://www.w3.org/2000/svg">
			<path d="M7.40016 15.1667H4.60016C1.9935 15.1667 0.833496 14.0067 0.833496 11.4V8.60004C0.833496 5.99337 1.9935 4.83337 4.60016 4.83337H7.40016C10.0068 4.83337 11.1668 5.99337 11.1668 8.60004V11.4C11.1668 14.0067 10.0068 15.1667 7.40016 15.1667ZM4.60016 5.83337C2.5335 5.83337 1.8335 6.53337 1.8335 8.60004V11.4C1.8335 13.4667 2.5335 14.1667 4.60016 14.1667H7.40016C9.46683 14.1667 10.1668 13.4667 10.1668 11.4V8.60004C10.1668 6.53337 9.46683 5.83337 7.40016 5.83337H4.60016Z" />
			<path d="M11.4002 11.1667H10.6668C10.3935 11.1667 10.1668 10.94 10.1668 10.6667V8.60004C10.1668 6.53337 9.46683 5.83337 7.40016 5.83337H5.3335C5.06016 5.83337 4.8335 5.60671 4.8335 5.33337V4.60004C4.8335 1.99337 5.9935 0.833374 8.60016 0.833374H11.4002C14.0068 0.833374 15.1668 1.99337 15.1668 4.60004V7.40004C15.1668 10.0067 14.0068 11.1667 11.4002 11.1667ZM11.1668 10.1667H11.4002C13.4668 10.1667 14.1668 9.46671 14.1668 7.40004V4.60004C14.1668 2.53337 13.4668 1.83337 11.4002 1.83337H8.60016C6.5335 1.83337 5.8335 2.53337 5.8335 4.60004V4.83337H7.40016C10.0068 4.83337 11.1668 5.99337 11.1668 8.60004V10.1667Z" />
		</svg>
