<svg width="48" height="48" viewBox="0 0 48 48" fill="none" xmlns="http://www.w3.org/2000/svg">
<rect x="4" y="4" width="40" height="40" rx="20" fill="#D1D3D5"/>
<path d="M26.4993 32.9584H21.4993C16.9743 32.9584 15.041 31.025 15.041 26.5V21.5C15.041 16.975 16.9743 15.0417 21.4993 15.0417H25.666C26.0077 15.0417 26.291 15.325 26.291 15.6667C26.291 16.0084 26.0077 16.2917 25.666 16.2917H21.4993C17.6577 16.2917 16.291 17.6584 16.291 21.5V26.5C16.291 30.3417 17.6577 31.7084 21.4993 31.7084H26.4993C30.341 31.7084 31.7077 30.3417 31.7077 26.5V22.3334C31.7077 21.9917 31.991 21.7084 32.3327 21.7084C32.6743 21.7084 32.9577 21.9917 32.9577 22.3334V26.5C32.9577 31.025 31.0243 32.9584 26.4993 32.9584Z" fill="#0D294D"/>
<path d="M32.3327 22.9583H28.9993C26.1493 22.9583 25.041 21.85 25.041 19V15.6667C25.041 15.4167 25.191 15.1833 25.4243 15.0917C25.6577 14.9917 25.9243 15.05 26.1077 15.225L32.7743 21.8917C32.9493 22.0667 33.0077 22.3417 32.9077 22.575C32.8077 22.8083 32.5827 22.9583 32.3327 22.9583ZM26.291 17.175V19C26.291 21.15 26.8493 21.7083 28.9993 21.7083H30.8243L26.291 17.175Z" fill="#0D294D"/>
<path d="M24.834 25.4583H19.834C19.4923 25.4583 19.209 25.175 19.209 24.8333C19.209 24.4916 19.4923 24.2083 19.834 24.2083H24.834C25.1757 24.2083 25.459 24.4916 25.459 24.8333C25.459 25.175 25.1757 25.4583 24.834 25.4583Z" fill="#0D294D"/>
<path d="M23.1673 28.7917H19.834C19.4923 28.7917 19.209 28.5084 19.209 28.1667C19.209 27.825 19.4923 27.5417 19.834 27.5417H23.1673C23.509 27.5417 23.7923 27.825 23.7923 28.1667C23.7923 28.5084 23.509 28.7917 23.1673 28.7917Z" fill="#0D294D"/>
<rect x="4" y="4" width="40" height="40" rx="20" stroke="#EAECEF" stroke-width="8"/>
</svg>
