<svg
			width="20"
			height="20"
			viewBox="0 0 20 20"
			fill="none"
			xmlns="http://www.w3.org/2000/svg">
			<path
				d="M17.5 17.8333H2.5C2.46985 17.8333 2.43857 17.8211 2.41293 17.7954C2.38728 17.7698 2.375 17.7385 2.375 17.7083C2.375 17.6782 2.38728 17.6469 2.41293 17.6213C2.43857 17.5956 2.46985 17.5833 2.5 17.5833H17.5C17.5301 17.5833 17.5614 17.5956 17.5871 17.6213C17.6127 17.6469 17.625 17.6782 17.625 17.7083C17.625 17.7385 17.6127 17.7698 17.5871 17.7954C17.5614 17.8211 17.5301 17.8333 17.5 17.8333Z"
				
			/>
			<path
				d="M15.4964 3.25354L15.4964 3.25355L15.4982 3.25531C16.2765 4.02581 16.5815 4.70369 16.575 5.34494L16.575 5.34494V5.34999C16.575 5.96745 16.2701 6.63893 15.4982 7.40298L15.4982 7.40296L15.495 7.40624L14.5638 8.34512C12.589 7.74825 11.0055 6.16617 10.4067 4.19209L11.3452 3.25354C12.1217 2.47702 12.8112 2.16783 13.4332 2.17185C14.0569 2.17589 14.7384 2.49554 15.4964 3.25354Z"
				
			/>
			<path
				d="M13.0084 9.60832C12.7668 9.49166 12.5334 9.37499 12.3084 9.24166C12.1251 9.13332 11.9501 9.01666 11.7751 8.89166C11.6334 8.79999 11.4668 8.66666 11.3084 8.53332C11.2918 8.52499 11.2334 8.47499 11.1668 8.40832C10.8918 8.17499 10.5834 7.87499 10.3084 7.54166C10.2834 7.52499 10.2418 7.46666 10.1834 7.39166C10.1001 7.29166 9.95844 7.12499 9.83344 6.93332C9.73344 6.80832 9.61677 6.62499 9.50844 6.44166C9.3751 6.21666 9.25844 5.99166 9.14177 5.75832C8.9888 5.43054 8.55859 5.33317 8.30282 5.58894L3.61677 10.275C3.50844 10.3833 3.40844 10.5917 3.38344 10.7333L2.93344 13.925C2.8501 14.4917 3.00844 15.025 3.35844 15.3833C3.65844 15.675 4.0751 15.8333 4.5251 15.8333C4.6251 15.8333 4.7251 15.825 4.8251 15.8083L8.0251 15.3583C8.1751 15.3333 8.38344 15.2333 8.48344 15.125L13.1772 10.4312C13.4279 10.1805 13.3337 9.74927 13.0084 9.60832Z"
				
			/>
			<path
				d="M12.8003 10.063L12.7911 10.0586C12.5468 9.94069 12.2977 9.81647 12.0535 9.6718M12.8003 10.063L13.0084 9.60832C12.7668 9.49166 12.5334 9.37499 12.3084 9.24166C12.1251 9.13332 11.9501 9.01666 11.7751 8.89166M12.8003 10.063L12.8096 10.0671C12.8115 10.0679 12.8124 10.0685 12.8128 10.0689C12.8134 10.0693 12.814 10.0699 12.8148 10.0709C12.8166 10.0732 12.8185 10.0769 12.8194 10.0812C12.8195 10.0814 12.8195 10.0816 12.8195 10.0818L8.12988 14.7714L8.12282 14.7785L8.11859 14.7831C8.11714 14.7843 8.11292 14.7878 8.1052 14.7932C8.09142 14.8028 8.0724 14.8142 8.04941 14.8257C8.02659 14.8371 8.00346 14.8468 7.98258 14.854C7.96485 14.8601 7.95248 14.8632 7.94617 14.8645L4.75548 15.3132L4.75545 15.313L4.7429 15.3151C4.66969 15.3273 4.59718 15.3333 4.5251 15.3333C4.19403 15.3333 3.90867 15.2184 3.71164 15.0293C3.48808 14.7973 3.36469 14.429 3.42812 13.9977L3.42854 13.9948L3.87666 10.8165L3.87839 10.8096C3.88022 10.803 3.88286 10.7944 3.88648 10.7842C3.89385 10.7634 3.90391 10.7396 3.91607 10.7153C3.92826 10.6909 3.94088 10.6694 3.95235 10.6524C3.96362 10.6357 3.97028 10.6286 3.9704 10.6285L8.65521 5.94365C8.65598 5.94374 8.65691 5.94388 8.658 5.94411C8.66965 5.94655 8.68168 5.95477 8.68868 5.96977L8.68851 5.96984L8.69456 5.98193C8.81298 6.21877 8.93581 6.4561 9.07813 6.69629C9.18389 6.87526 9.30895 7.0744 9.42761 7.2262C9.55776 7.42271 9.69966 7.59249 9.78116 7.69C9.78554 7.69524 9.78975 7.70027 9.79377 7.70508C9.79976 7.71283 9.80673 7.7219 9.81411 7.73151C9.83239 7.75529 9.85319 7.78237 9.868 7.80088C9.88132 7.81753 9.89946 7.83964 9.91997 7.86176C9.92626 7.86853 9.93594 7.87883 9.94866 7.89106C10.2334 8.23189 10.5467 8.53656 10.8282 8.77675C10.8631 8.8111 10.897 8.84264 10.9271 8.86899C10.9441 8.88382 10.9626 8.89947 10.9813 8.91401L10.9824 8.91492C10.9866 8.91821 10.9957 8.92534 11.0085 8.93436M12.8003 10.063L11.0085 8.93436M12.0535 9.6718L12.3084 9.24174L12.0541 9.67212C12.0539 9.67201 12.0537 9.67191 12.0535 9.6718ZM12.0535 9.6718C11.8582 9.55636 11.6739 9.43355 11.4934 9.30491M11.4934 9.30491C11.4968 9.3071 11.5001 9.30928 11.5035 9.31144L11.7751 8.89166M11.4934 9.30491C11.3341 9.20073 11.1606 9.06185 11.0085 8.93436M11.4934 9.30491C11.4904 9.30278 11.4875 9.30065 11.4845 9.29852L11.7751 8.89166M11.7751 8.89166L11.0085 8.93436"
				
			/>
		</svg>
