<svg
			width="85"
			height="85"
			viewBox="0 0 85 85"
			fill="none"
			xmlns="http://www.w3.org/2000/svg">
			<path
				d="M72.7459 67.4334C72.2146 67.9646 71.5417 68.2125 70.8688 68.2125C70.1959 68.2125 69.523 67.9646 68.9917 67.4334L51.4604 49.9021L53.3375 48.025L55.2146 46.1479L72.7459 63.6792C73.773 64.7063 73.773 66.4063 72.7459 67.4334Z"
				fill="#0D294D"
			/>
			<path
				d="M22.9145 32.8667L43.4562 53.4084C44.8374 54.7896 44.8374 57.0209 43.4562 58.4021L40.2687 61.625C37.3999 64.4584 32.8666 64.4584 30.0332 61.625L14.6624 46.2542C11.8645 43.4563 11.8645 38.8875 14.6624 36.0542L17.8853 32.8313C19.2666 31.4855 21.5332 31.4855 22.9145 32.8667Z"
				fill="#0D294D"
			/>
			<path
				d="M65.8395 36.0896L52.3457 49.5479C50.9291 50.9646 48.6624 50.9646 47.2457 49.5479L26.7749 29.0771C25.3582 27.6604 25.3582 25.3937 26.7749 23.9771L40.2687 10.4833C43.0666 7.68541 47.6353 7.68541 50.4687 10.4833L65.8395 25.8542C68.6374 28.6875 68.6374 33.2208 65.8395 36.0896Z"
				fill="#0D294D"
			/>
			<path
				d="M28.3335 77.0313H7.0835C5.63141 77.0313 4.42725 75.8271 4.42725 74.375C4.42725 72.9229 5.63141 71.7188 7.0835 71.7188H28.3335C29.7856 71.7188 30.9897 72.9229 30.9897 74.375C30.9897 75.8271 29.7856 77.0313 28.3335 77.0313Z"
				fill="#0D294D"
			/>
		</svg>
