<svg width="20" height="10" viewBox="0 0 20 10" fill="none" xmlns="http://www.w3.org/2000/svg">
<path d="M18.75 4.24387H2.56L5 1.80387C5.29 1.51387 5.29 1.03387 5 0.743867C4.71 0.453867 4.23 0.453867 3.94 0.743867L0.23 4.45387C0.16 4.52387 0.0999999 4.61387 0.0599999 4.71387C0.0599999 4.72387 0.06 4.73387 0.05 4.74387C0.02 4.82387 0 4.91387 0 5.00387C0 5.20387 0.08 5.39387 0.22 5.53387L3.94 9.25387C4.09 9.40387 4.28 9.47387 4.47 9.47387C4.66 9.47387 4.85 9.40387 5 9.25387C5.29 8.96387 5.29 8.48387 5 8.19387L2.55 5.74387H18.75C19.16 5.74387 19.5 5.40387 19.5 4.99387C19.5 4.58387 19.16 4.24387 18.75 4.24387Z" fill="#0D294D"/>
</svg>
