<svg width="22" height="20" viewBox="0 0 22 20" fill="none" xmlns="http://www.w3.org/2000/svg">
<path d="M15.4681 1.66666H13.1632C10.3263 1.66666 8.55322 3.33332 8.55322 5.99999V9.37499H14.094C14.4575 9.37499 14.7589 9.65832 14.7589 9.99999C14.7589 10.3417 14.4575 10.625 14.094 10.625H8.55322V14C8.55322 16.6667 10.3263 18.3333 13.1632 18.3333H15.4593C18.2961 18.3333 20.0692 16.6667 20.0692 14V5.99999C20.078 3.33332 18.305 1.66666 15.4681 1.66666Z" />
<path d="M4.61738 9.375L6.45249 7.65C6.58547 7.525 6.64753 7.36667 6.64753 7.20834C6.64753 7.05 6.58547 6.88334 6.45249 6.76667C6.1954 6.525 5.76987 6.525 5.51277 6.76667L2.54292 9.55834C2.28582 9.8 2.28582 10.2 2.54292 10.4417L5.51277 13.2333C5.76987 13.475 6.1954 13.475 6.45249 13.2333C6.70958 12.9917 6.70958 12.5917 6.45249 12.35L4.61738 10.625H8.55356V9.375H4.61738Z" />
</svg>
