<svg
			width="20"
			height="20"
			viewBox="0 0 20 20"
			fill="none"
			xmlns="http://www.w3.org/2000/svg">
			<path
				d="M18.3334 15.8333V18.3333H1.66675V15.8333C1.66675 15.375 2.04175 15 2.50008 15H17.5001C17.9584 15 18.3334 15.375 18.3334 15.8333Z"
				
				stroke="#BABBBE"
				stroke-width="1.5"
				stroke-miterlimit="10"
				stroke-linecap="round"
				stroke-linejoin="round"
			/>
			<path
				d="M5.83342 9.16666H4.16675V15H5.83342V9.16666Z"
				
			/>
			<path
				d="M9.16667 9.16666H7.5V15H9.16667V9.16666Z"
				
			/>
			<path
				d="M12.4999 9.16666H10.8333V15H12.4999V9.16666Z"
				
			/>
			<path
				d="M15.8334 9.16666H14.1667V15H15.8334V9.16666Z"
				
			/>
			<path
				d="M19.1666 18.9583H0.833252C0.491585 18.9583 0.208252 18.675 0.208252 18.3333C0.208252 17.9917 0.491585 17.7083 0.833252 17.7083H19.1666C19.5082 17.7083 19.7916 17.9917 19.7916 18.3333C19.7916 18.675 19.5082 18.9583 19.1666 18.9583Z"
				
			/>
			<path
				d="M17.8084 4.79167L10.3084 1.79167C10.1417 1.725 9.85842 1.725 9.69175 1.79167L2.19175 4.79167C1.90008 4.90834 1.66675 5.25 1.66675 5.56667V8.33334C1.66675 8.79167 2.04175 9.16667 2.50008 9.16667H17.5001C17.9584 9.16667 18.3334 8.79167 18.3334 8.33334V5.56667C18.3334 5.25 18.1001 4.90834 17.8084 4.79167ZM10.0001 7.08334C9.30841 7.08334 8.75008 6.525 8.75008 5.83334C8.75008 5.14167 9.30841 4.58334 10.0001 4.58334C10.6917 4.58334 11.2501 5.14167 11.2501 5.83334C11.2501 6.525 10.6917 7.08334 10.0001 7.08334Z"
				
			/>
		</svg>
