<svg
			width="20"
			height="20"
			viewBox="0 0 20 20"
			fill="none"
			xmlns="http://www.w3.org/2000/svg">
			<path
				d="M17.3729 6.46954C17.8003 7.01419 17.3289 7.70833 16.6366 7.70833H2.66675C2.11446 7.70833 1.66675 7.26062 1.66675 6.70833V5.35C1.66675 3.31666 3.31675 1.66666 5.35008 1.66666H7.28342C8.64175 1.66666 9.06675 2.10833 9.60842 2.83333L10.7751 4.38333C11.0334 4.725 11.0667 4.76666 11.5501 4.76666H13.8751C15.2939 4.76666 16.5589 5.43217 17.3729 6.46954Z"
				
			/>
			<path
				d="M17.3201 8.95812C17.8711 8.95811 18.3183 9.40377 18.3201 9.95473L18.3334 13.875C18.3334 16.3333 16.3334 18.3333 13.8751 18.3333H6.12508C3.66675 18.3333 1.66675 16.3333 1.66675 13.875V9.95832C1.66675 9.40604 2.11446 8.95832 2.66673 8.95832L17.3201 8.95812Z"
				
			/>
		</svg>
