<svg
			width="20"
			height="20"
			viewBox="0 0 20 20"
			fill="none"
			xmlns="http://www.w3.org/2000/svg">
			<path
				d="M13.1667 1.84167C12.8251 1.5 12.2334 1.73334 12.2334 2.20834V5.11667C12.2334 6.33334 13.2667 7.34167 14.5251 7.34167C15.3167 7.35 16.4167 7.35 17.3584 7.35C17.8334 7.35 18.0834 6.79167 17.7501 6.45834C16.5501 5.25 14.4001 3.075 13.1667 1.84167Z"
				
			/>
			<path
				d="M17.0833 8.49166H14.6749C12.6999 8.49166 11.0916 6.88332 11.0916 4.90832V2.49999C11.0916 2.04166 10.7166 1.66666 10.2583 1.66666H6.72492C4.15825 1.66666 2.08325 3.33332 2.08325 6.30832V13.6917C2.08325 16.6667 4.15825 18.3333 6.72492 18.3333H13.2749C15.8416 18.3333 17.9166 16.6667 17.9166 13.6917V9.32499C17.9166 8.86666 17.5416 8.49166 17.0833 8.49166ZM9.58325 14.7917H6.24992C5.90825 14.7917 5.62492 14.5083 5.62492 14.1667C5.62492 13.825 5.90825 13.5417 6.24992 13.5417H9.58325C9.92492 13.5417 10.2083 13.825 10.2083 14.1667C10.2083 14.5083 9.92492 14.7917 9.58325 14.7917ZM11.2499 11.4583H6.24992C5.90825 11.4583 5.62492 11.175 5.62492 10.8333C5.62492 10.4917 5.90825 10.2083 6.24992 10.2083H11.2499C11.5916 10.2083 11.8749 10.4917 11.8749 10.8333C11.8749 11.175 11.5916 11.4583 11.2499 11.4583Z"
				
			/>
		</svg>
