<svg
			width="19"
			height="25"
			viewBox="0 0 19 25"
			fill="none"
			xmlns="http://www.w3.org/2000/svg">
			<path
				d="M18.0353 15.3213L16.8353 13.3293C16.5833 12.8853 16.3553 12.0453 16.3553 11.5533V8.51725C16.3553 5.69725 14.6993 3.26125 12.3113 2.12125C11.6873 1.01725 10.5353 0.333252 9.21527 0.333252C7.90728 0.333252 6.73128 1.04125 6.10728 2.15725C3.76727 3.32125 2.14728 5.73325 2.14728 8.51725V11.5533C2.14728 12.0453 1.91928 12.8853 1.66728 13.3173L0.455275 15.3213C-0.0247247 16.1253 -0.132725 17.0133 0.167275 17.8293C0.455275 18.6333 1.13928 19.2573 2.02728 19.5573C4.35528 20.3493 6.80328 20.7333 9.25128 20.7333C11.6993 20.7333 14.1473 20.3493 16.4753 19.5693C17.3153 19.2933 17.9633 18.6573 18.2753 17.8293C18.5873 17.0013 18.5033 16.0893 18.0353 15.3213Z"
				fill="#101828"
			/>
			<path
				d="M12.6236 21.9453C12.1196 23.3373 10.7876 24.3333 9.22755 24.3333C8.27955 24.3333 7.34355 23.9493 6.68355 23.2653C6.29955 22.9053 6.01155 22.4253 5.84355 21.9333C5.99956 21.9573 6.15555 21.9693 6.32355 21.9933C6.59955 22.0293 6.88755 22.0653 7.17555 22.0893C7.85955 22.1493 8.55556 22.1853 9.25156 22.1853C9.93556 22.1853 10.6196 22.1493 11.2916 22.0893C11.5436 22.0653 11.7956 22.0533 12.0356 22.0173C12.2276 21.9933 12.4196 21.9693 12.6236 21.9453Z"
				fill="#101828"
			/>
		</svg>
