<svg width="30" height="30" viewBox="0 0 30 30" fill="none" xmlns="http://www.w3.org/2000/svg">
<circle cx="15" cy="15" r="13.5" stroke="#BABBBE" stroke-width="3"/>
<mask id="path-2-inside-1_1033_30166" fill="white">
<path d="M28.4448 15C29.3037 15 30.0083 15.6981 29.9195 16.5524C29.6883 18.7736 28.9633 20.9222 27.7896 22.8375C26.3442 25.1962 24.2747 27.1092 21.8099 28.3651C19.345 29.621 16.5809 30.1708 13.8231 29.9538C11.0653 29.7367 8.42123 28.7613 6.18322 27.1353C3.94521 25.5092 2.20044 23.296 1.14181 20.7403C0.0831766 18.1845 -0.248075 15.3858 0.184675 12.6535C0.617425 9.92121 1.79732 7.36182 3.59391 5.25828C5.05276 3.55018 6.8721 2.19668 8.91321 1.29047C9.69821 0.941945 10.5799 1.39635 10.8453 2.2132C11.1107 3.03006 10.6577 3.89837 9.8824 4.26806C8.38328 4.98293 7.04512 6.00663 5.95903 7.27828C4.53497 8.94564 3.59973 10.9743 3.25672 13.14C2.9137 15.3058 3.17626 17.5242 4.01538 19.55C4.8545 21.5758 6.23748 23.3301 8.01143 24.6189C9.78538 25.9078 11.8812 26.681 14.0671 26.853C16.2531 27.0251 18.4441 26.5892 20.3978 25.5938C22.3515 24.5983 23.9919 23.0819 25.1376 21.2123C26.0114 19.7864 26.5715 18.1974 26.7881 16.5508C26.9001 15.6992 27.5859 15 28.4448 15Z"/>
</mask>
<path d="M28.4448 15C29.3037 15 30.0083 15.6981 29.9195 16.5524C29.6883 18.7736 28.9633 20.9222 27.7896 22.8375C26.3442 25.1962 24.2747 27.1092 21.8099 28.3651C19.345 29.621 16.5809 30.1708 13.8231 29.9538C11.0653 29.7367 8.42123 28.7613 6.18322 27.1353C3.94521 25.5092 2.20044 23.296 1.14181 20.7403C0.0831766 18.1845 -0.248075 15.3858 0.184675 12.6535C0.617425 9.92121 1.79732 7.36182 3.59391 5.25828C5.05276 3.55018 6.8721 2.19668 8.91321 1.29047C9.69821 0.941945 10.5799 1.39635 10.8453 2.2132C11.1107 3.03006 10.6577 3.89837 9.8824 4.26806C8.38328 4.98293 7.04512 6.00663 5.95903 7.27828C4.53497 8.94564 3.59973 10.9743 3.25672 13.14C2.9137 15.3058 3.17626 17.5242 4.01538 19.55C4.8545 21.5758 6.23748 23.3301 8.01143 24.6189C9.78538 25.9078 11.8812 26.681 14.0671 26.853C16.2531 27.0251 18.4441 26.5892 20.3978 25.5938C22.3515 24.5983 23.9919 23.0819 25.1376 21.2123C26.0114 19.7864 26.5715 18.1974 26.7881 16.5508C26.9001 15.6992 27.5859 15 28.4448 15Z" stroke="#0D294D" stroke-width="6" mask="url(#path-2-inside-1_1033_30166)"/>
</svg>
