<svg
			width="20"
			height="20"
			viewBox="0 0 20 20"
			fill="none"
			xmlns="http://www.w3.org/2000/svg">
			<path d="M18.3332 9.99996C18.3332 5.40829 14.5915 1.66663 9.99984 1.66663C5.40817 1.66663 1.6665 5.40829 1.6665 9.99996C1.6665 12.4166 2.70817 14.5916 4.35817 16.1166C4.35817 16.125 4.35817 16.125 4.34984 16.1333C4.43317 16.2166 4.53317 16.2833 4.6165 16.3583C4.6665 16.4 4.70817 16.4416 4.75817 16.475C4.90817 16.6 5.07484 16.7166 5.23317 16.8333C5.2915 16.875 5.3415 16.9083 5.39984 16.95C5.55817 17.0583 5.72484 17.1583 5.89984 17.25C5.95817 17.2833 6.02484 17.325 6.08317 17.3583C6.24984 17.45 6.42484 17.5333 6.60817 17.6083C6.67484 17.6416 6.7415 17.675 6.80817 17.7C6.9915 17.775 7.17484 17.8416 7.35817 17.9C7.42484 17.925 7.4915 17.95 7.55817 17.9666C7.75817 18.025 7.95817 18.075 8.15817 18.125C8.2165 18.1416 8.27484 18.1583 8.3415 18.1666C8.57484 18.2166 8.80817 18.25 9.04984 18.275C9.08317 18.275 9.1165 18.2833 9.14984 18.2916C9.43317 18.3166 9.7165 18.3333 9.99984 18.3333C10.2832 18.3333 10.5665 18.3166 10.8415 18.2916C10.8748 18.2916 10.9082 18.2833 10.9415 18.275C11.1832 18.25 11.4165 18.2166 11.6498 18.1666C11.7082 18.1583 11.7665 18.1333 11.8332 18.125C12.0332 18.075 12.2415 18.0333 12.4332 17.9666C12.4998 17.9416 12.5665 17.9166 12.6332 17.9C12.8165 17.8333 13.0082 17.775 13.1832 17.7C13.2498 17.675 13.3165 17.6416 13.3832 17.6083C13.5582 17.5333 13.7332 17.45 13.9082 17.3583C13.9748 17.325 14.0332 17.2833 14.0915 17.25C14.2582 17.15 14.4248 17.0583 14.5915 16.95C14.6498 16.9166 14.6998 16.875 14.7582 16.8333C14.9248 16.7166 15.0832 16.6 15.2332 16.475C15.2832 16.4333 15.3248 16.3916 15.3748 16.3583C15.4665 16.2833 15.5582 16.2083 15.6415 16.1333C15.6415 16.125 15.6415 16.125 15.6332 16.1166C17.2915 14.5916 18.3332 12.4166 18.3332 9.99996ZM14.1165 14.1416C11.8582 12.625 8.15817 12.625 5.88317 14.1416C5.5165 14.3833 5.2165 14.6666 4.9665 14.975C3.69984 13.6916 2.9165 11.9333 2.9165 9.99996C2.9165 6.09163 6.0915 2.91663 9.99984 2.91663C13.9082 2.91663 17.0832 6.09163 17.0832 9.99996C17.0832 11.9333 16.2998 13.6916 15.0332 14.975C14.7915 14.6666 14.4832 14.3833 14.1165 14.1416Z" />
			<path d="M10 5.77502C8.275 5.77502 6.875 7.17502 6.875 8.90002C6.875 10.5917 8.2 11.9667 9.95833 12.0167C9.98333 12.0167 10.0167 12.0167 10.0333 12.0167C10.05 12.0167 10.075 12.0167 10.0917 12.0167C10.1 12.0167 10.1083 12.0167 10.1083 12.0167C11.7917 11.9584 13.1167 10.5917 13.125 8.90002C13.125 7.17502 11.725 5.77502 10 5.77502Z" />
		</svg>
