<svg
			width="20"
			height="20"
			viewBox="0 0 20 20"
			fill="none"
			xmlns="http://www.w3.org/2000/svg">
			<path d="M12.4417 2.08333V7C12.4417 7.36667 12.0083 7.55 11.7417 7.30833L10.2833 5.96667C10.125 5.81667 9.87502 5.81667 9.71668 5.96667L8.25835 7.3C7.99168 7.55 7.55835 7.35833 7.55835 7V2.08333C7.55835 1.85 7.74168 1.66667 7.97502 1.66667H12.025C12.2583 1.66667 12.4417 1.85 12.4417 2.08333Z" />
			<path d="M14.15 1.71667C13.9083 1.68333 13.6917 1.89167 13.6917 2.13333V7.15C13.6917 7.78333 13.3167 8.35833 12.7333 8.61667C12.15 8.86667 11.475 8.75833 11.0083 8.325L10.2833 7.65833C10.125 7.50833 9.88333 7.50833 9.71667 7.65833L8.99167 8.325C8.69167 8.60833 8.3 8.75 7.90833 8.75C7.69167 8.75 7.475 8.70833 7.26667 8.61667C6.68333 8.35833 6.30833 7.78333 6.30833 7.15V2.13333C6.30833 1.89167 6.09167 1.68333 5.85 1.71667C3.51667 2.00833 2.5 3.58333 2.5 5.83333V14.1667C2.5 16.6667 3.75 18.3333 6.66667 18.3333H13.3333C16.25 18.3333 17.5 16.6667 17.5 14.1667V5.83333C17.5 3.58333 16.4833 2.00833 14.15 1.71667ZM14.5833 15.625H7.5C7.15833 15.625 6.875 15.3417 6.875 15C6.875 14.6583 7.15833 14.375 7.5 14.375H14.5833C14.925 14.375 15.2083 14.6583 15.2083 15C15.2083 15.3417 14.925 15.625 14.5833 15.625ZM14.5833 12.2917H11.0417C10.7 12.2917 10.4167 12.0083 10.4167 11.6667C10.4167 11.325 10.7 11.0417 11.0417 11.0417H14.5833C14.925 11.0417 15.2083 11.325 15.2083 11.6667C15.2083 12.0083 14.925 12.2917 14.5833 12.2917Z" />
		</svg>
