<svg width="44" height="43" viewBox="0 0 44 43" fill="none" xmlns="http://www.w3.org/2000/svg">
<rect x="4.5" y="4" width="35" height="35" rx="17.5" fill="#D1D3D5"/>
<path d="M26.2899 17.5142C25.5273 15.4902 23.8878 14.2083 21.4113 14.2083C18.2602 14.2083 16.0555 16.5481 15.866 19.6008C14.3467 20.0867 13.25 21.6365 13.25 23.392C13.25 25.5409 14.9393 27.3563 16.9384 27.3563H18.5183C18.8202 27.3563 19.0652 27.1113 19.0652 26.8094C19.0652 26.5073 18.8202 26.2625 18.5183 26.2625H16.9384C15.5318 26.2625 14.3265 24.9481 14.3265 23.392C14.3265 22.0169 15.2906 20.7763 16.5001 20.5685L16.9964 20.4829L16.9523 19.9817L16.9482 19.9754C16.9482 17.3116 18.7012 15.3023 21.4113 15.3023C23.5835 15.3023 24.8038 16.3726 25.3682 18.198L25.4852 18.5746L25.8792 18.583C27.9109 18.6257 29.6921 20.274 29.6921 22.3218C29.6921 24.1855 28.4569 26.2626 26.5869 26.2626H25.3373C25.0354 26.2626 24.7904 26.5076 24.7904 26.8094C24.7904 27.1116 25.0354 27.3563 25.3373 27.3563L26.5828 27.3547C29.3172 27.2825 30.7415 24.6704 30.7415 22.3218C30.7415 19.7974 28.7632 17.7803 26.2899 17.5142L26.2899 17.5142ZM22.4099 21.8716C22.4069 21.8684 22.4057 21.8656 22.4038 21.8629L22.2655 21.7182C22.1897 21.6381 22.0888 21.5985 21.9879 21.599C21.887 21.5982 21.7867 21.6381 21.7096 21.7182L21.5712 21.8629C21.5685 21.8656 21.5679 21.8689 21.5655 21.8716L19.5915 24.0548C19.4387 24.2145 19.4387 24.4729 19.5915 24.6331L19.7293 24.7266C19.8822 24.8863 20.1299 24.8346 20.2825 24.6749L21.4465 23.3772V28.8875C21.4465 29.1894 21.6915 29.4344 21.9934 29.4344C22.2953 29.4344 22.5403 29.1894 22.5403 28.8875V23.3824L23.7429 24.7091C23.8957 24.8688 24.1429 24.9205 24.2955 24.7608L24.4333 24.6672C24.5862 24.507 24.5862 24.2486 24.4333 24.0889L22.4099 21.8716Z" fill="#0D294D"/>
<rect x="4.5" y="4" width="35" height="35" rx="17.5" stroke="#EDEEF1" stroke-width="8"/>
</svg>
